<svg width="100" height="100" viewBox="0 0 100 100" xmlns="http://www.w3.org/2000/svg">
  <g fill="none" fill-rule="evenodd">
    <circle fill="#F7931A" cx="50" cy="50" r="50"/>
    <path d="M67.7 43.9c.7-4.9-3-7.5-8.1-9.3l1.7-6.6-4-1-1.6 6.4c-1.1-.3-2.1-.5-3.2-.8l1.6-6.5-4-1-1.7 6.6c-.9-.2-1.7-.4-2.6-.6l-5.5-1.4-1.1 4.2s3 .7 2.9.7c1.6.4 1.9 1.5 1.9 2.4l-1.9 7.5c.1 0 .3.1.4.2-.1 0-.3-.1-.5-.1l-2.6 10.5c-.2.5-.7 1.3-1.9.9.1.1-2.9-.7-2.9-.7l-2 4.6 5.2 1.3c1 .2 1.9.5 2.9.7l-1.7 6.8 4 1 1.7-6.6c1.1.3 2.2.6 3.2.8l-1.7 6.6 4 1 1.7-6.8c7 1.3 12.2.8 14.4-5.5 1.8-5.1-.1-8-3.7-9.9 2.6-.6 4.6-2.3 5.2-5.9zm-9.2 12.9c-1.3 5.1-9.8 2.3-12.6 1.7l2.2-9c2.8.7 11.7 2.1 10.4 7.3zm1.3-13.2c-1.2 4.6-8.3 2.3-10.6 1.7l2-8.1c2.3.6 9.7 1.7 8.6 6.4z" fill="#FFF" fill-rule="nonzero"/>
  </g>
</svg> 