<svg width="400" height="200" viewBox="0 0 400 200" xmlns="http://www.w3.org/2000/svg">
  <defs>
    <linearGradient id="gradient" x1="0%" y1="0%" x2="0%" y2="100%">
      <stop offset="0%" stop-color="#3b82f6" stop-opacity="0.3" />
      <stop offset="100%" stop-color="#3b82f6" stop-opacity="0.05" />
    </linearGradient>
  </defs>
  
  <!-- Background -->
  <rect x="0" y="0" width="400" height="200" fill="#1f2937" />
  
  <!-- Grid lines -->
  <g stroke="#374151" stroke-width="0.5">
    <line x1="0" y1="40" x2="400" y2="40" />
    <line x1="0" y1="80" x2="400" y2="80" />
    <line x1="0" y1="120" x2="400" y2="120" />
    <line x1="0" y1="160" x2="400" y2="160" />
    
    <line x1="80" y1="0" x2="80" y2="200" />
    <line x1="160" y1="0" x2="160" y2="200" />
    <line x1="240" y1="0" x2="240" y2="200" />
    <line x1="320" y1="0" x2="320" y2="200" />
  </g>
  
  <!-- Chart line -->
  <path d="M0,150 C20,140 40,100 60,110 C80,120 100,80 120,70 C140,60 160,90 180,50 C200,10 220,30 240,40 C260,50 280,20 300,30 C320,40 340,60 360,50 C380,40 400,60 400,70" 
        fill="none" stroke="#3b82f6" stroke-width="2" />
  
  <!-- Area under the line -->
  <path d="M0,150 C20,140 40,100 60,110 C80,120 100,80 120,70 C140,60 160,90 180,50 C200,10 220,30 240,40 C260,50 280,20 300,30 C320,40 340,60 360,50 C380,40 400,60 400,70 L400,200 L0,200 Z" 
        fill="url(#gradient)" />
  
  <!-- Data points -->
  <circle cx="60" cy="110" r="3" fill="#3b82f6" />
  <circle cx="120" cy="70" r="3" fill="#3b82f6" />
  <circle cx="180" cy="50" r="3" fill="#3b82f6" />
  <circle cx="240" cy="40" r="3" fill="#3b82f6" />
  <circle cx="300" cy="30" r="3" fill="#3b82f6" />
  <circle cx="360" cy="50" r="3" fill="#3b82f6" />
</svg> 