<svg width="100" height="100" viewBox="0 0 100 100" xmlns="http://www.w3.org/2000/svg">
  <g fill="none" fill-rule="evenodd">
    <circle fill="#8247E5" cx="50" cy="50" r="50"/>
    <g fill="#FFF" fill-rule="nonzero">
      <path d="M65.8 44.3c-1.3-.8-3-1.2-4.5-1.2-1.6 0-3.2.4-4.5 1.2l-6.8 4-4.5 2.6-6.8 4c-1.3.8-2.9 1.2-4.5 1.2-1.6 0-3.2-.4-4.5-1.2-1.3-.8-2.4-1.9-3.2-3.2-.8-1.3-1.2-2.9-1.2-4.5s.4-3.2 1.2-4.5c.8-1.3 1.9-2.4 3.2-3.2 1.3-.8 2.9-1.2 4.5-1.2 1.6 0 3.2.4 4.5 1.2l6.8 4 4.5-2.6-6.8-4c-1.3-.8-2.9-1.2-4.5-1.2-1.6 0-3.2.4-4.5 1.2-2.7 1.5-4.8 3.7-6.3 6.3-1.5 2.7-2.3 5.7-2.3 8.8 0 3.1.8 6.1 2.3 8.8 1.5 2.7 3.7 4.8 6.3 6.3 2.7 1.5 5.7 2.3 8.8 2.3 3.1 0 6.1-.8 8.8-2.3l6.8-4 4.5-2.6 6.8-4c1.3-.8 2.9-1.2 4.5-1.2 1.6 0 3.2.4 4.5 1.2 1.3.8 2.4 1.9 3.2 3.2.8 1.3 1.2 2.9 1.2 4.5s-.4 3.2-1.2 4.5c-.8 1.3-1.9 2.4-3.2 3.2-1.3.8-2.9 1.2-4.5 1.2-1.6 0-3.2-.4-4.5-1.2l-6.8-4-4.5 2.6 6.8 4c2.7 1.5 5.7 2.3 8.8 2.3 3.1 0 6.1-.8 8.8-2.3 2.7-1.5 4.8-3.7 6.3-6.3 1.5-2.7 2.3-5.7 2.3-8.8 0-3.1-.8-6.1-2.3-8.8-1.5-2.7-3.7-4.8-6.3-6.3z"/>
    </g>
  </g>
</svg> 